o fern1.obj
v -0.312208 1.464305 -0.578462
v -0.155744 1.693171 -0.739853
v 0.155744 1.693171 -0.739853
v 0.312208 1.464305 -0.578462
v -0.428261 1.173065 -0.428616
v -0.244335 1.228095 -0.216890
v 0.244335 1.228095 -0.216890
v 0.428261 1.173065 -0.428616
v -0.473926 0.780126 -0.275771
v -0.279772 0.842860 -0.019804
v 0.279772 0.842860 -0.019804
v 0.473926 0.780126 -0.275771
v -0.358320 -0.059525 -0.119784
v -0.171343 -0.104984 0.057065
v 0.171343 -0.104984 0.057065
v 0.358320 -0.059525 -0.119784
v 0.000000 1.200775 -0.219489
v 0.000000 1.827260 -0.782838
v 0.000000 0.815540 -0.052397
v 0.000000 -0.180750 0.025843
v -0.132493 1.591985 -0.506770
v 0.132493 1.591985 -0.506770
v 0.000000 1.590181 -0.548380
v -0.258355 0.425759 0.041535
v -0.456048 0.419609 -0.208713
v 0.258355 0.425759 0.041535
v 0.456048 0.419609 -0.208713
v 0.000000 0.433311 0.010199
vn -0.661808 0.629883 0.406519
vn -0.587276 0.719406 0.370892
vn 0.587276 0.719406 0.370892
vn 0.672035 0.609401 0.420714
vn -0.744543 0.456873 0.486747
vn -0.357242 0.554357 0.751710
vn 0.363705 0.532843 0.764066
vn 0.755601 0.415261 0.506582
vn -0.803925 0.193593 0.562340
vn -0.386331 0.275075 0.880388
vn 0.388319 0.281694 0.877415
vn 0.804262 0.185543 0.564568
vn -0.696037 -0.093279 0.711921
vn -0.286155 -0.038601 0.957406
vn 0.272455 0.032016 0.961636
vn 0.687862 -0.005587 0.725820
vn 0.000452 0.528539 0.848909
vn 0.000000 0.801112 0.598515
vn -0.000313 0.291758 0.956492
vn -0.007959 0.044524 0.998977
vn -0.343000 0.735979 0.583683
vn 0.348997 0.721174 0.598423
vn 0.000953 0.665555 0.746348
vn -0.338761 0.039845 0.940028
vn -0.752834 -0.023488 0.657791
vn 0.331949 0.079714 0.939923
vn 0.748889 0.032490 0.661899
vn -0.003775 0.101162 0.994863
vt 0.285775 0.640073
vt 0.402441 0.611853
vt 0.439047 0.809870
vt 0.338472 0.786284
vt 0.262132 0.453809
vt 0.393843 0.444556
vt 0.310143 0.080406
vt 0.422746 0.057402
vt 0.394395 0.281707
vt 0.262043 0.291944
vt 0.502416 0.604856
vt 0.500550 0.822090
vt 0.501306 0.437403
vt 0.500000 0.024115
vt 0.499174 0.283378
vt 0.602136 0.611356
vt 0.719995 0.635039
vt 0.665696 0.787057
vt 0.562373 0.809441
vt 0.609136 0.442651
vt 0.741231 0.451506
vt 0.576598 0.056814
vt 0.686779 0.079559
vt 0.737696 0.287368
vt 0.604849 0.280773
vt 0.410924 0.926383
vt 0.589766 0.927323
vt 0.500000 0.985002
g Fern
f 5/1/5 6/2/6 21/3/21 1/4/1 
f 9/5/9 10/6/10 6/2/6 5/1/5 
f 13/7/13 14/8/14 24/9/24 25/10/25 
f 6/2/6 17/11/17 23/12/23 21/3/21 
f 10/6/10 19/13/19 17/11/17 6/2/6 
f 14/8/14 20/14/20 28/15/28 24/9/24 
f 7/16/7 8/17/8 4/18/4 22/19/22 
f 11/20/11 12/21/12 8/17/8 7/16/7 
f 15/22/15 16/23/16 27/24/27 26/25/26 
f 17/11/17 7/16/7 22/19/22 23/12/23 
f 19/13/19 11/20/11 7/16/7 17/11/17 
f 20/14/20 15/22/15 26/25/26 28/15/28 
f 21/3/21 2/26/2 1/4/1 
f 4/18/4 3/27/3 22/19/22 
f 23/12/23 18/28/18 21/3/21 
f 22/19/22 18/28/18 23/12/23 
f 24/9/24 10/6/10 9/5/9 25/10/25 
f 28/15/28 19/13/19 10/6/10 24/9/24 
f 26/25/26 11/20/11 19/13/19 28/15/28 
f 27/24/27 12/21/12 11/20/11 26/25/26 
f 22/19/22 3/27/3 18/28/18 
f 18/28/18 2/26/2 21/3/21 
