o ground1.obj
v -3.096072 0.098675 -3.393623
v -1.976784 0.105971 -4.052949
v -0.206440 0.110374 -4.537862
v 0.737149 0.139373 -4.520423
v 2.296110 0.106372 -4.177467
v 3.206188 0.103394 -3.709018
v 3.807193 0.096859 -2.980606
v 3.649220 0.090308 -2.316590
v 3.259192 0.084885 -1.762718
v 2.575578 0.079256 -1.231479
v 2.760395 0.089768 -0.718145
v 2.691489 0.095199 -0.122876
v 2.987043 0.073606 0.956880
v 3.111628 0.074737 1.329701
v 2.961635 0.082566 1.618879
v 2.476214 0.082156 1.894847
v 1.735660 0.080454 1.955861
v 1.111694 0.090727 1.729934
v 0.621291 0.070831 1.403417
v 0.056959 0.105703 1.094957
v -0.693391 0.053903 0.901389
v -1.136091 0.048416 0.198813
v -1.226694 0.030513 -0.557006
v -2.753001 0.088825 -1.605070
v -3.032467 0.092127 -2.131437
v -1.948682 0.104413 -1.203872
v 0.332181 0.521280 -1.098975
v 1.394141 0.495752 0.743985
v -0.884874 0.108189 -4.297202
v 0.567076 0.522354 -0.600277
v 0.966411 0.538275 0.163556
v 1.692526 0.524960 1.063502
v -1.386578 0.630461 -1.604243
v -0.552074 0.611355 -1.571786
v 0.191680 0.636336 -1.718316
v 2.057275 0.509142 -1.947019
v -3.171030 0.095109 -2.638534
v -1.502264 0.687711 -2.207120
v -0.614493 0.723515 -2.360513
v 0.112113 0.713670 -2.318251
v 1.925197 0.572489 -2.520825
v -1.415367 0.662804 -2.782779
v -0.588782 0.663210 -2.906195
v 0.053774 0.669750 -2.961804
v 1.799313 0.593550 -2.928541
v 1.283684 0.463786 -0.707086
v 1.110891 0.511660 -1.124487
v 0.947084 0.654253 -1.894453
v 0.776903 0.723514 -2.516268
v 0.702115 0.719375 -2.944204
v 1.501188 0.108001 -4.435234
v 1.200841 0.696162 -2.936831
v 1.301170 0.695526 -2.519228
v 1.422577 0.612779 -1.928352
v 1.614025 0.480547 -1.194028
v 1.703323 0.439677 -0.807549
v -1.525552 0.072309 -0.793162
v -2.770629 0.274976 -2.459753
v -2.710267 0.270401 -3.161870
v 2.297689 0.250976 -1.199740
v 2.464792 0.248107 -0.784474
v 2.627869 0.214961 0.860435
v 2.672583 0.257107 1.242568
v -1.716510 0.271921 -3.743739
v -0.749394 0.274804 -3.960077
v -0.163368 0.280171 -4.160600
v 0.689468 0.318220 -4.152574
v 0.648126 0.257880 1.164763
v 0.072192 0.264076 0.860161
v 2.210298 0.243075 1.664863
v 1.639534 0.251521 1.705779
v 1.118924 0.262120 1.521063
v 2.067851 0.276268 -3.854797
v 2.873916 0.268265 -3.439887
v -0.994922 0.166408 0.030537
v -1.064624 0.180783 -0.649108
v 2.440309 0.212306 -0.246034
v -0.595629 0.164451 0.666781
v 2.544267 0.283302 1.428666
v -1.671969 0.285561 -1.179655
v -2.396829 0.278547 -1.597543
v -2.644355 0.281130 -2.046120
v -1.324571 0.230473 -0.819275
v 3.246136 0.258412 -2.203659
v 2.921032 0.254332 -1.715163
v 3.423285 0.263342 -2.788983
v 1.383266 0.287730 -4.084568
v -2.179489 0.488830 -2.466585
v -2.089721 0.476987 -2.792392
v 1.868240 0.395192 -1.221999
v 1.998012 0.370171 -0.872122
v 2.056852 0.348555 0.658839
v 2.132966 0.440349 1.009885
v -1.300415 0.474989 -3.253657
v -0.532862 0.463071 -3.425353
v -0.071554 0.479448 -3.581277
v 0.609655 0.553054 -3.576776
v 0.717891 0.444764 0.968448
v 0.105759 0.362565 0.455002
v 1.934867 0.399867 1.393122
v 1.518216 0.360004 1.439983
v 1.193315 0.376039 1.150508
v 1.703000 0.487121 -3.341995
v 2.342734 0.418661 -3.012701
v -0.762888 0.268396 -0.214015
v -0.799168 0.318780 -0.771847
v 2.002078 0.313614 -0.441469
v -0.444160 0.276943 0.294469
v 2.324051 0.361075 1.251383
v -1.232704 0.426077 -1.168892
v -1.815309 0.461248 -1.531529
v -2.011758 0.480678 -1.913067
v -1.005429 0.351103 -0.883973
v 2.779357 0.394168 -2.045837
v 2.380038 0.392713 -1.605480
v 2.661671 0.400667 -2.529682
v 1.164641 0.525902 -3.524678
v -3.480024 -0.174870 -3.620362
v -2.234257 -0.166749 -4.354192
v -0.263865 -0.161848 -4.893900
v 0.786351 -0.129573 -4.874490
v 2.521473 -0.166303 -4.492782
v 3.534390 -0.169617 -3.971396
v 4.186634 -0.176890 -3.165486
v 4.047603 -0.184182 -2.423674
v 3.593383 -0.190218 -1.783222
v 2.836054 -0.185914 -1.207407
v 3.028331 -0.155391 -0.643261
v 2.941901 -0.135654 0.014071
v 3.342581 -0.155192 1.096515
v 3.380909 -0.182767 1.511193
v 3.170337 -0.188304 1.832857
v 2.755232 -0.190374 2.078800
v 1.804183 -0.192568 2.201621
v 1.211861 -0.177179 2.022981
v 0.663002 -0.165539 1.632052
v 0.037120 -0.153213 1.343616
v -0.787151 -0.176719 1.133542
v -1.279877 -0.182078 0.351575
v -1.392153 -0.208736 -0.541296
v -3.112988 -0.193490 -1.586675
v -3.424033 -0.186455 -2.211956
v -2.220420 -0.181150 -1.189790
v -1.018961 -0.164281 -4.626046
v -3.569413 -0.179020 -2.812899
v 1.636725 -0.164490 -4.779675
v -1.723009 -0.201942 -0.757128
v 2.661182 0.075029 0.546539
v 2.974153 -0.157229 0.709709
v 2.416085 0.083438 0.173817
v 2.420033 0.076295 0.321526
v 2.194384 0.203913 0.215366
v 2.195339 0.206349 0.051787
v 1.693971 0.347594 -0.110359
v 2.724097 -0.136835 0.314690
v 2.735092 -0.139280 0.440542
v 2.478924 0.358610 1.134688
vn -0.369519 0.899027 -0.234961
vn -0.181637 0.868046 -0.462065
vn -0.100274 0.855810 -0.507478
vn 0.033133 0.852657 -0.521419
vn 0.195878 0.870091 -0.452298
vn 0.294975 0.884056 -0.362539
vn 0.443486 0.892878 -0.078032
vn 0.520023 0.814384 0.257594
vn 0.516174 0.694731 0.500912
vn 0.605753 0.765196 0.218031
vn 0.571455 0.816820 -0.079021
vn 0.454793 0.863957 0.216199
vn 0.546157 0.800370 -0.247224
vn 0.540957 0.837902 0.072699
vn 0.392005 0.842151 0.370289
vn 0.159637 0.798283 0.580741
vn -0.084855 0.746756 0.659662
vn -0.335586 0.693253 0.637794
vn -0.372680 0.702257 0.606585
vn -0.264621 0.791678 0.550656
vn -0.387149 0.819931 0.421696
vn -0.646722 0.732649 0.212075
vn -0.632279 0.639535 0.437285
vn -0.469370 0.722207 0.508045
vn -0.534033 0.816049 0.221073
vn -0.452538 0.613635 0.647040
vn -0.050841 0.988500 0.142422
vn 0.025753 0.997268 -0.069226
vn -0.145643 0.855367 -0.497127
vn -0.060710 0.997941 0.020695
vn -0.018272 0.999833 -0.000886
vn 0.008120 0.997242 0.073772
vn -0.151035 0.970843 0.186150
vn -0.094492 0.954172 0.283950
vn -0.010168 0.981269 0.192373
vn 0.201496 0.972958 0.112924
vn -0.506730 0.860550 0.051751
vn -0.141584 0.989815 0.014824
vn -0.003855 0.999826 0.018254
vn -0.009477 0.999663 0.024169
vn 0.187808 0.981823 0.027435
vn -0.151193 0.961292 -0.230346
vn -0.029921 0.978399 -0.204551
vn -0.039383 0.983544 -0.176322
vn 0.211136 0.963931 -0.162048
vn 0.061694 0.997397 0.037315
vn 0.050320 0.993274 0.104283
vn 0.047944 0.988944 0.140326
vn 0.012137 0.999291 0.035632
vn -0.011701 0.988264 -0.152305
vn 0.127843 0.859133 -0.495527
vn 0.114832 0.980747 -0.157952
vn 0.114685 0.992805 0.034438
vn 0.160845 0.980590 0.112125
vn 0.184895 0.978170 0.094858
vn 0.164116 0.981664 0.096966
vn -0.481987 0.571289 0.664318
vn -0.361009 0.932249 0.024154
vn -0.250561 0.949803 -0.187331
vn 0.401730 0.895153 0.193168
vn 0.333853 0.942617 -0.003813
vn 0.418629 0.882016 -0.216327
vn 0.403499 0.914664 -0.024062
vn -0.124683 0.935524 -0.330528
vn -0.107217 0.928665 -0.355085
vn -0.102967 0.918502 -0.381774
vn 0.007285 0.913156 -0.407546
vn -0.286024 0.823394 0.490115
vn -0.254385 0.912574 0.320152
vn 0.101237 0.900280 0.423376
vn -0.095730 0.881334 0.462693
vn -0.239785 0.815530 0.526701
vn 0.165698 0.944880 -0.282393
vn 0.200527 0.960349 -0.193698
vn -0.443481 0.883128 0.153002
vn -0.432012 0.809649 0.397282
vn 0.284192 0.946046 0.155663
vn -0.281391 0.929418 0.238749
vn 0.268341 0.934128 0.235369
vn -0.364310 0.744841 0.559009
vn -0.379098 0.819086 0.430561
vn -0.400030 0.898315 0.181676
vn -0.334835 0.735704 0.588749
vn 0.361594 0.917177 0.167440
vn 0.382242 0.838904 0.387468
vn 0.283035 0.957509 -0.055387
vn 0.116740 0.924167 -0.363713
vn -0.282519 0.959235 0.007142
vn -0.227072 0.949345 -0.217214
vn 0.252746 0.958178 0.134217
vn 0.230475 0.970701 0.067985
vn 0.299168 0.936632 -0.182260
vn 0.211037 0.977026 -0.029740
vn -0.125419 0.932315 -0.339204
vn -0.070166 0.945862 -0.316895
vn -0.083782 0.948294 -0.306134
vn -0.008941 0.947187 -0.320558
vn -0.182891 0.954609 0.235102
vn -0.214438 0.967206 0.136122
vn 0.030865 0.947658 0.317791
vn -0.150059 0.935797 0.319009
vn -0.162901 0.936610 0.310202
vn 0.188067 0.950728 -0.246470
vn 0.202506 0.970778 -0.128769
vn -0.253364 0.961962 0.102152
vn -0.178951 0.940275 0.289586
vn 0.186561 0.974414 0.125345
vn -0.214164 0.966168 0.143710
vn 0.209911 0.956450 0.202833
vn -0.236957 0.884956 0.400880
vn -0.208708 0.935934 0.283668
vn -0.230307 0.966014 0.117373
vn -0.219768 0.855165 0.469461
vn 0.218578 0.968412 0.120006
vn 0.239911 0.930810 0.275744
vn 0.203349 0.978965 -0.016615
vn 0.114176 0.946801 -0.300885
vn -0.441514 0.852265 -0.280551
vn -0.216011 0.808540 -0.547359
vn -0.110093 0.798062 -0.592433
vn 0.042918 0.798450 -0.600530
vn 0.226153 0.810947 -0.539648
vn 0.351505 0.829506 -0.434009
vn 0.527614 0.843117 -0.103815
vn 0.596054 0.749309 0.288541
vn 0.554407 0.628240 0.545846
vn 0.679144 0.698861 0.224403
vn 0.682977 0.723822 -0.098104
vn 0.541118 0.805119 0.242847
vn 0.667707 0.700152 -0.252892
vn 0.669286 0.728609 0.145548
vn 0.488521 0.744498 0.455050
vn 0.198626 0.715863 0.669393
vn -0.092487 0.682663 0.724857
vn -0.359694 0.626157 0.691771
vn -0.399821 0.620731 0.674416
vn -0.271197 0.702938 0.657519
vn -0.440640 0.719974 0.536166
vn -0.740087 0.626398 0.244737
vn -0.710700 0.553358 0.434398
vn -0.505511 0.662127 0.553215
vn -0.601903 0.759865 0.245596
vn -0.472666 0.552172 0.686800
vn -0.170836 0.791801 -0.586401
vn -0.587648 0.806890 0.059984
vn 0.141898 0.802732 -0.579212
vn -0.533854 0.511947 0.672986
vn 0.545670 0.696424 -0.466088
vn 0.625466 0.517920 -0.583567
vn 0.457758 0.871182 0.177482
vn 0.572630 0.774924 -0.267560
vn 0.374636 0.921471 -0.102663
vn 0.333156 0.935736 0.115785
vn 0.190820 0.981625 -0.000217
vn 0.501599 0.843741 0.191046
vn 0.654939 0.649836 -0.385704
vn 0.332686 0.941585 -0.052313
vt 0.190180 0.639354
vt 0.274509 0.601333
vt 0.285329 0.685689
vt 0.201358 0.687098
vt 0.662551 0.471518
vt 0.673282 0.428826
vt 0.709218 0.435627
vt 0.694206 0.474905
vt 0.615554 0.261852
vt 0.653474 0.222575
vt 0.717394 0.240443
vt 0.707409 0.290204
vt 0.388256 0.703774
vt 0.395219 0.779851
vt 0.299643 0.754691
vt 0.468268 0.711923
vt 0.548999 0.709344
vt 0.537486 0.802040
vt 0.452662 0.802700
vt 0.574001 0.325598
vt 0.476930 0.274917
vt 0.548073 0.211013
vt 0.599646 0.188726
vt 0.647478 0.142904
vt 0.696395 0.162379
vt 0.685623 0.707049
vt 0.753290 0.719381
vt 0.673630 0.767636
vt 0.532184 0.402159
vt 0.502935 0.454566
vt 0.362059 0.424690
vt 0.366576 0.355229
vt 0.703634 0.386038
vt 0.406264 0.291912
vt 0.665679 0.352649
vt 0.743039 0.196961
vt 0.211066 0.558243
vt 0.235528 0.507501
vt 0.308074 0.473317
vt 0.288914 0.522439
vt 0.336375 0.438652
vt 0.392827 0.520435
vt 0.485440 0.529704
vt 0.638712 0.560483
vt 0.717745 0.563218
vt 0.757936 0.518777
vt 0.807659 0.577699
vt 0.385054 0.623811
vt 0.475532 0.617618
vt 0.623594 0.647069
vt 0.701298 0.647303
vt 0.793005 0.648601
vt 0.611101 0.708264
vt 0.621478 0.417218
vt 0.599901 0.463126
vt 0.579503 0.555515
vt 0.558312 0.646635
vt 0.606593 0.794406
vt 0.116571 0.638353
vt 0.124087 0.741241
vt 0.076047 0.775201
vt 0.066713 0.664552
vt 0.747605 0.472728
vt 0.766520 0.423222
vt 0.803130 0.413721
vt 0.781773 0.469621
vt 0.789799 0.180208
vt 0.844288 0.151527
vt 0.830817 0.213475
vt 0.781728 0.229807
vt 0.247831 0.826507
vt 0.368257 0.858209
vt 0.351386 0.907610
vt 0.215421 0.871818
vt 0.441229 0.887593
vt 0.547425 0.886417
vt 0.553362 0.940321
vt 0.435865 0.942876
vt 0.545470 0.174902
vt 0.475036 0.221474
vt 0.473299 0.188571
vt 0.545335 0.133978
vt 0.734774 0.102933
vt 0.667050 0.093532
vt 0.678925 0.047939
vt 0.767624 0.056101
vt 0.603267 0.117876
vt 0.604234 0.081674
vt 0.719062 0.842781
vt 0.819434 0.781981
vt 0.860808 0.821419
vt 0.747485 0.890065
vt 0.337683 0.324777
vt 0.329004 0.409407
vt 0.308823 0.397938
vt 0.320105 0.303823
vt 0.757095 0.358411
vt 0.791077 0.340422
vt 0.387403 0.245551
vt 0.375230 0.216338
vt 0.722183 0.306605
vt 0.786928 0.258966
vt 0.753014 0.287783
vt 0.774286 0.148884
vt 0.825901 0.100499
vt 0.253377 0.467345
vt 0.163117 0.513806
vt 0.118766 0.518058
vt 0.218920 0.464724
vt 0.132295 0.577740
vt 0.083967 0.590242
vt 0.296635 0.430420
vt 0.271609 0.426404
vt 0.865783 0.600826
vt 0.825301 0.529242
vt 0.867409 0.536211
vt 0.915975 0.617374
vt 0.887841 0.686598
vt 0.935646 0.714678
vt 0.633817 0.876451
vt 0.648501 0.927837
vt 0.723708 0.327312
vt 0.752772 0.306355
vt 0.753597 0.210326
vt 0.183360 0.915962
vt 0.028237 0.808427
vt 0.428715 0.995049
vt 0.334690 0.955799
vt 0.559489 0.992205
vt 0.775547 0.936270
vt 0.665378 0.978311
vt 0.901676 0.859867
vt 0.982894 0.741770
vt 0.965582 0.633066
vt 0.909022 0.542431
vt 0.814739 0.468077
vt 0.838509 0.405860
vt 0.824087 0.323124
vt 0.829380 0.242477
vt 0.797980 0.269068
vt 0.875979 0.116428
vt 0.871662 0.186062
vt 0.850762 0.064408
vt 0.801053 0.024644
vt 0.687164 0.004951
vt 0.616236 0.033673
vt 0.550510 0.096875
vt 0.470007 0.155288
vt 0.363555 0.187430
vt 0.302200 0.284801
vt 0.288220 0.395982
vt 0.073940 0.521700
vt 0.185083 0.460752
vt 0.035209 0.602041
vt 0.017106 0.690103
vt 0.796162 0.285514
vt 0.247021 0.421031
g Polygon
f 88/1/88 38/2/38 42/3/42 89/4/89 
f 55/5/55 56/6/56 91/7/91 90/8/90 
f 28/9/28 32/10/32 93/11/93 92/12/92 
f 42/3/42 43/13/43 95/14/95 94/15/94 
f 44/16/44 50/17/50 97/18/97 96/19/96 
f 31/20/31 99/21/99 98/22/98 28/9/28 
f 32/10/32 102/23/102 101/24/101 100/25/100 
f 45/26/45 104/27/104 103/28/103 
f 43/13/43 44/16/44 96/19/96 95/14/95 
f 30/29/30 27/30/27 106/31/106 105/32/105 
f 56/6/56 107/33/107 91/7/91 
f 31/20/31 30/29/30 105/32/105 108/34/108 99/21/99 
f 31/20/31 28/9/28 92/12/92 154/35/154 
f 32/10/32 28/9/28 98/22/98 102/23/102 
f 32/10/32 100/25/100 109/36/109 93/11/93 
f 112/37/112 111/38/111 110/39/110 33/40/33 
f 33/40/33 110/39/110 113/41/113 34/42/34 
f 34/42/34 106/31/106 27/30/27 35/43/35 
f 54/44/54 55/5/55 90/8/90 36/45/36 
f 36/45/36 90/8/90 115/46/115 114/47/114 
f 88/1/88 112/37/112 33/40/33 38/2/38 
f 38/2/38 33/40/33 34/42/34 39/48/39 
f 39/48/39 34/42/34 35/43/35 40/49/40 
f 53/50/53 54/44/54 36/45/36 41/51/41 
f 41/51/41 36/45/36 114/47/114 116/52/116 
f 42/3/42 94/15/94 89/4/89 
f 42/3/42 38/2/38 39/48/39 43/13/43 
f 43/13/43 39/48/39 40/49/40 44/16/44 
f 52/53/52 53/50/53 41/51/41 45/26/45 
f 45/26/45 41/51/41 116/52/116 104/27/104 
f 46/54/46 30/29/30 31/20/31 154/35/154 
f 47/55/47 27/30/27 30/29/30 46/54/46 
f 48/56/48 35/43/35 27/30/27 47/55/47 
f 49/57/49 40/49/40 35/43/35 48/56/48 
f 50/17/50 44/16/44 40/49/40 49/57/49 
f 50/17/50 52/53/52 117/58/117 97/18/97 
f 52/53/52 45/26/45 103/28/103 117/58/117 
f 52/53/52 50/17/50 49/57/49 53/50/53 
f 53/50/53 49/57/49 48/56/48 54/44/54 
f 54/44/54 48/56/48 47/55/47 55/5/55 
f 55/5/55 47/55/47 46/54/46 56/6/56 
f 56/6/56 46/54/46 154/35/154 107/33/107 
f 113/41/113 106/31/106 34/42/34 
f 58/59/58 59/60/59 1/61/1 37/62/37 
f 60/63/60 61/64/61 11/65/11 10/66/10 
f 63/67/63 14/68/14 13/69/13 62/70/62 
f 64/71/64 65/72/65 29/73/29 2/74/2 
f 66/75/66 67/76/67 4/77/4 3/78/3 
f 68/79/68 69/80/69 20/81/20 19/82/19 
f 70/83/70 71/84/71 17/85/17 16/86/16 
f 71/84/71 72/87/72 18/88/18 17/85/17 
f 73/89/73 74/90/74 6/91/6 5/92/5 
f 65/72/65 66/75/66 3/78/3 29/73/29 
f 75/93/75 76/94/76 23/95/23 22/96/22 
f 61/64/61 77/97/77 12/98/12 11/65/11 
f 69/80/69 78/99/78 21/100/21 20/81/20 
f 78/99/78 75/93/75 22/96/22 21/100/21 
f 152/101/152 62/70/62 148/102/148 151/103/151 
f 72/87/72 68/79/68 19/82/19 18/88/18 
f 63/67/63 79/104/79 15/105/15 14/68/14 
f 79/104/79 70/83/70 16/86/16 15/105/15 
f 80/106/80 81/107/81 24/108/24 26/109/26 
f 81/107/81 82/110/82 25/111/25 24/108/24 
f 83/112/83 80/106/80 26/109/26 57/113/57 
f 84/114/84 85/115/85 9/116/9 8/117/8 
f 85/115/85 60/63/60 10/66/10 9/116/9 
f 82/110/82 58/59/58 37/62/37 25/111/25 
f 86/118/86 84/114/84 8/117/8 7/119/7 
f 59/60/59 64/71/64 2/74/2 1/61/1 
f 74/90/74 86/118/86 7/119/7 6/91/6 
f 67/76/67 87/120/87 51/121/51 4/77/4 
f 87/120/87 73/89/73 5/92/5 51/121/51 
f 77/97/77 153/122/153 150/123/150 12/98/12 
f 76/94/76 83/112/83 57/113/57 23/95/23 
f 88/1/88 89/4/89 59/60/59 58/59/58 
f 90/8/90 91/7/91 61/64/61 60/63/60 
f 93/11/93 157/124/157 92/12/92 
f 94/15/94 95/14/95 65/72/65 64/71/64 
f 96/19/96 97/18/97 67/76/67 66/75/66 
f 98/22/98 99/21/99 69/80/69 68/79/68 
f 100/25/100 101/24/101 71/84/71 70/83/70 
f 101/24/101 102/23/102 72/87/72 71/84/71 
f 103/28/103 104/27/104 74/90/74 73/89/73 
f 95/14/95 96/19/96 66/75/66 65/72/65 
f 105/32/105 106/31/106 76/94/76 75/93/75 
f 91/7/91 107/33/107 77/97/77 61/64/61 
f 99/21/99 108/34/108 78/99/78 69/80/69 
f 108/34/108 105/32/105 75/93/75 78/99/78 
f 154/35/154 92/12/92 62/70/62 152/101/152 
f 102/23/102 98/22/98 68/79/68 72/87/72 
f 93/11/93 109/36/109 157/124/157 
f 109/36/109 100/25/100 70/83/70 79/104/79 
f 110/39/110 111/38/111 81/107/81 80/106/80 
f 111/38/111 112/37/112 82/110/82 81/107/81 
f 113/41/113 110/39/110 80/106/80 83/112/83 
f 114/47/114 115/46/115 85/115/85 84/114/84 
f 115/46/115 90/8/90 60/63/60 85/115/85 
f 112/37/112 88/1/88 58/59/58 82/110/82 
f 116/52/116 114/47/114 84/114/84 86/118/86 
f 89/4/89 94/15/94 64/71/64 59/60/59 
f 104/27/104 116/52/116 86/118/86 74/90/74 
f 97/18/97 117/58/117 87/120/87 67/76/67 
f 117/58/117 103/28/103 73/89/73 87/120/87 
f 107/33/107 154/35/154 153/122/153 77/97/77 
f 106/31/106 113/41/113 83/112/83 76/94/76 
f 1/61/1 2/74/2 119/125/119 118/126/118 
f 29/73/29 3/78/3 120/127/120 144/128/144 
f 3/78/3 4/77/4 121/129/121 120/127/120 
f 51/121/51 5/92/5 122/130/122 146/131/146 
f 5/92/5 6/91/6 123/132/123 122/130/122 
f 6/91/6 7/119/7 124/133/124 123/132/123 
f 7/119/7 8/117/8 125/134/125 124/133/124 
f 8/117/8 9/116/9 126/135/126 125/134/125 
f 9/116/9 10/66/10 127/136/127 126/135/126 
f 10/66/10 11/65/11 128/137/128 127/136/127 
f 11/65/11 12/98/12 129/138/129 128/137/128 
f 151/103/151 148/102/148 149/139/149 156/140/156 
f 14/68/14 131/141/131 130/142/130 13/69/13 
f 14/68/14 15/105/15 132/143/132 131/141/131 
f 15/105/15 16/86/16 133/144/133 132/143/132 
f 16/86/16 17/85/17 134/145/134 133/144/133 
f 17/85/17 18/88/18 135/146/135 134/145/134 
f 18/88/18 19/82/19 136/147/136 135/146/135 
f 19/82/19 20/81/20 137/148/137 136/147/136 
f 20/81/20 21/100/21 138/149/138 137/148/137 
f 21/100/21 22/96/22 139/150/139 138/149/138 
f 22/96/22 23/95/23 140/151/140 139/150/139 
f 26/109/26 24/108/24 141/152/141 143/153/143 
f 24/108/24 25/111/25 142/154/142 141/152/141 
f 37/62/37 1/61/1 118/126/118 145/155/145 
f 12/98/12 150/123/150 155/156/155 129/138/129 
f 57/113/57 26/109/26 143/153/143 147/157/147 
f 2/74/2 29/73/29 144/128/144 119/125/119 
f 25/111/25 37/62/37 145/155/145 142/154/142 
f 4/77/4 51/121/51 146/131/146 121/129/121 
f 23/95/23 57/113/57 147/157/147 140/151/140 
f 62/70/62 13/69/13 148/102/148 
f 148/102/148 13/69/13 130/142/130 149/139/149 
f 152/101/152 151/103/151 150/123/150 153/122/153 
f 152/101/152 153/122/153 154/35/154 
f 151/103/151 156/140/156 155/156/155 150/123/150 
f 109/36/109 79/104/79 63/67/63 157/124/157 
f 157/124/157 63/67/63 62/70/62 92/12/92 
