o moss.obj
v 0.193964 2.476571 0.029795
v 0.390205 2.343368 0.021564
v 0.548039 2.147766 0.006392
v 0.685600 1.908496 -0.011084
v 0.830826 1.526970 -0.004874
v 0.951788 1.035312 0.023186
v 0.952514 0.610799 0.004110
v 0.910984 0.367468 -0.005338
v 0.793324 0.090332 0.010366
v 0.559317 -0.206084 0.038831
v 0.290284 -0.400807 0.054899
v 0.165085 2.429968 0.121509
v 0.329638 2.260789 0.189383
v 0.457466 2.029401 0.232537
v 0.589304 1.704309 0.264096
v 0.743131 1.302174 0.293069
v 0.835161 0.943979 0.350405
v 0.839612 0.597084 0.388580
v 0.803410 0.376289 0.380159
v 0.698244 0.112691 0.352469
v 0.492370 -0.166524 0.282383
v 0.254258 -0.378702 0.180818
v 0.089512 2.390928 0.184350
v 0.193762 2.194757 0.298101
v 0.289003 1.922786 0.377597
v 0.385087 1.489796 0.433815
v 0.453165 1.146506 0.520710
v 0.489729 0.833883 0.603253
v 0.514489 0.561898 0.678702
v 0.501759 0.361759 0.663000
v 0.435846 0.117382 0.604255
v 0.299848 -0.146297 0.460831
v 0.153315 -0.362845 0.273019
v -0.012726 2.363961 0.205821
v 0.012774 2.147153 0.335207
v 0.069068 1.853986 0.440212
v 0.096246 1.408459 0.493498
v 0.064182 1.135474 0.589427
v 0.054214 0.850625 0.703727
v 0.072198 0.531847 0.787985
v 0.077033 0.325530 0.767076
v 0.059377 0.106828 0.695311
v 0.031430 -0.143926 0.526575
v 0.014637 -0.357405 0.306791
v -0.113973 2.355191 0.182362
v -0.172115 2.118763 0.294641
v -0.182537 1.820522 0.382553
v -0.210379 1.529742 0.443642
v -0.214513 1.164765 0.526043
v -0.298172 0.850530 0.608182
v -0.365637 0.490015 0.679846
v -0.356546 0.282417 0.664470
v -0.326021 0.078248 0.604062
v -0.243372 -0.157343 0.461666
v -0.125456 -0.363507 0.273064
v -0.188779 2.367358 0.118383
v -0.323107 2.130473 0.185886
v -0.416277 1.837145 0.238095
v -0.495943 1.543932 0.275780
v -0.519333 1.168074 0.294640
v -0.621397 0.809948 0.361978
v -0.715096 0.383845 0.394104
v -0.700093 0.161404 0.382782
v -0.623634 -0.022233 0.352092
v -0.454037 -0.210663 0.283481
v -0.228882 -0.380320 0.180864
v -0.217531 2.404892 0.026546
v -0.391951 2.197424 0.015619
v -0.539487 1.913090 0.000965
v -0.619958 1.611022 -0.011441
v -0.636786 1.226815 -0.018478
v -0.740891 0.792680 -0.014201
v -0.866603 0.322497 -0.010886
v -0.847110 0.097957 -0.003431
v -0.751798 -0.095693 0.016168
v -0.537552 -0.267068 0.039833
v -0.266937 -0.403035 0.054926
v -0.191403 2.455219 -0.069601
v -0.344046 2.296267 -0.171746
v -0.473984 2.013517 -0.263714
v -0.522636 1.667871 -0.338587
v -0.562037 1.272484 -0.391795
v -0.652978 0.837849 -0.417651
v -0.741975 0.384816 -0.416099
v -0.728127 0.143113 -0.390348
v -0.649432 -0.076483 -0.321919
v -0.461279 -0.278965 -0.203682
v -0.229344 -0.423705 -0.071002
v -0.117828 2.498146 -0.141061
v -0.203519 2.380234 -0.310747
v -0.271882 2.140544 -0.470449
v -0.304558 1.813637 -0.609708
v -0.304360 1.420927 -0.705739
v -0.360168 0.906410 -0.712950
v -0.395185 0.467081 -0.689137
v -0.390574 0.227085 -0.658036
v -0.356151 -0.026864 -0.568513
v -0.256813 -0.283726 -0.381874
v -0.127645 -0.439251 -0.163187
v -0.015361 2.524742 -0.165671
v -0.004809 2.432529 -0.358807
v 0.013326 2.238696 -0.545092
v 0.040276 1.960191 -0.716944
v 0.059720 1.557770 -0.838732
v 0.053705 0.998622 -0.840026
v 0.050319 0.505484 -0.810552
v 0.039316 0.251322 -0.780718
v 0.022234 -0.023690 -0.677640
v 0.012775 -0.293008 -0.450680
v 0.011033 -0.445137 -0.196929
v 0.089486 2.531889 -0.138377
v 0.205636 2.455505 -0.305201
v 0.324011 2.282452 -0.458910
v 0.418570 2.004493 -0.598301
v 0.482142 1.599511 -0.703813
v 0.496320 1.022920 -0.698140
v 0.498320 0.551412 -0.741528
v 0.471957 0.287986 -0.730508
v 0.403719 -0.000028 -0.630229
v 0.283249 -0.281031 -0.393210
v 0.149822 -0.439242 -0.163188
v 0.166750 2.514132 -0.066196
v 0.352294 2.420639 -0.164198
v 0.516012 2.235065 -0.254145
v 0.632414 1.965284 -0.333780
v 0.737558 1.598199 -0.368858
v 0.818914 1.038944 -0.355519
v 0.827669 0.591927 -0.403906
v 0.791150 0.333984 -0.430212
v 0.686226 0.044788 -0.366587
v 0.482986 -0.249181 -0.211749
v 0.251989 -0.423037 -0.071011
v -0.017841 2.500851 0.031496
v 0.011033 -0.465841 0.059362
vn 0.320252 0.857129 0.403447
vn 0.637753 0.680400 0.361009
vn 0.811328 0.505657 0.293357
vn 0.904939 0.373666 0.203614
vn 0.960570 0.261369 0.094823
vn 0.994004 0.108697 0.011860
vn 0.998004 -0.063134 -0.001676
vn 0.964019 -0.265264 0.017365
vn 0.865286 -0.497732 0.059518
vn 0.695638 -0.709750 0.111102
vn 0.414002 -0.897353 0.152842
vn 0.243126 0.768282 0.592143
vn 0.491328 0.560702 0.666491
vn 0.589692 0.396597 0.703544
vn 0.644902 0.314058 0.696756
vn 0.707705 0.279021 0.649076
vn 0.795008 0.153545 0.586844
vn 0.847837 -0.060474 0.526797
vn 0.823076 -0.261061 0.504374
vn 0.733530 -0.470710 0.490271
vn 0.581553 -0.669525 0.462096
vn 0.349197 -0.862169 0.367051
vn 0.079532 0.697268 0.712384
vn 0.242188 0.467992 0.849899
vn 0.304995 0.291229 0.906732
vn 0.321224 0.241000 0.915824
vn 0.357683 0.269544 0.894097
vn 0.412743 0.232224 0.880747
vn 0.469979 0.036522 0.881922
vn 0.469040 -0.219908 0.855361
vn 0.416837 -0.443700 0.793333
vn 0.324912 -0.643338 0.693216
vn 0.196985 -0.835961 0.512218
vn -0.128651 0.650316 0.748691
vn -0.078232 0.409623 0.908894
vn -0.012358 0.225664 0.974127
vn 0.006535 0.225829 0.974145
vn -0.007883 0.321687 0.946813
vn -0.015159 0.297352 0.954647
vn -0.004357 0.083189 0.996524
vn 0.014933 -0.198998 0.979886
vn 0.015190 -0.427478 0.903898
vn 0.008099 -0.633965 0.773319
vn 0.002662 -0.827567 0.561360
vn -0.330356 0.636365 0.697069
vn -0.378782 0.377290 0.845089
vn -0.342388 0.223925 0.912484
vn -0.351812 0.221857 0.909400
vn -0.411760 0.319226 0.853551
vn -0.448876 0.311215 0.837649
vn -0.455046 0.080504 0.886822
vn -0.406951 -0.203237 0.890554
vn -0.348729 -0.439122 0.827985
vn -0.286787 -0.647824 0.705746
vn -0.187090 -0.838253 0.512181
vn -0.490836 0.661336 0.567199
vn -0.630911 0.410933 0.658092
vn -0.675934 0.287898 0.678401
vn -0.746881 0.201427 0.633716
vn -0.791948 0.240291 0.561319
vn -0.799239 0.297507 0.522214
vn -0.818304 0.084847 0.568489
vn -0.759817 -0.231291 0.607605
vn -0.630109 -0.514872 0.581266
vn -0.491529 -0.719728 0.490297
vn -0.316696 -0.874723 0.366829
vn -0.584256 0.725532 0.363660
vn -0.810854 0.510728 0.285785
vn -0.916602 0.357612 0.178761
vn -0.979193 0.177182 0.098934
vn -0.982697 0.172026 0.068664
vn -0.964174 0.262293 0.039646
vn -0.996206 0.080381 0.033361
vn -0.959203 -0.278335 0.049589
vn -0.776090 -0.624008 0.091093
vn -0.555794 -0.820160 0.135757
vn -0.348916 -0.923054 0.161952
vn -0.564183 0.816914 0.119790
vn -0.786577 0.601456 -0.139810
vn -0.871950 0.370138 -0.320469
vn -0.902387 0.177186 -0.392813
vn -0.893291 0.160825 -0.419721
vn -0.848061 0.205990 -0.488223
vn -0.827196 0.042183 -0.560328
vn -0.778869 -0.285932 -0.558217
vn -0.646182 -0.623862 -0.439597
vn -0.488192 -0.839641 -0.238057
vn -0.311282 -0.949095 -0.048181
vn -0.403958 0.910954 -0.083550
vn -0.550288 0.695109 -0.462608
vn -0.618609 0.440891 -0.650337
vn -0.632279 0.257928 -0.730545
vn -0.577186 0.158437 -0.801096
vn -0.494049 0.084241 -0.865343
vn -0.450300 -0.040442 -0.891961
vn -0.426240 -0.261758 -0.865911
vn -0.379703 -0.548504 -0.744962
vn -0.313766 -0.790618 -0.525807
vn -0.199054 -0.953281 -0.227229
vn -0.166915 0.972406 -0.162989
vn -0.156831 0.789096 -0.593913
vn -0.134242 0.577096 -0.805568
vn -0.097155 0.380331 -0.919733
vn -0.036816 0.147273 -0.988410
vn -0.025813 -0.012051 -0.999594
vn -0.062128 -0.087253 -0.994247
vn -0.066916 -0.245817 -0.967004
vn -0.037622 -0.509870 -0.859428
vn -0.006710 -0.762156 -0.647359
vn -0.000071 -0.952672 -0.304000
vn 0.084228 0.993916 -0.070968
vn 0.279082 0.852746 -0.441517
vn 0.419127 0.645877 -0.638102
vn 0.513057 0.419494 -0.748864
vn 0.542925 0.150783 -0.826134
vn 0.496435 0.004589 -0.868062
vn 0.443898 -0.056077 -0.894321
vn 0.427744 -0.253634 -0.867586
vn 0.406421 -0.534967 -0.740697
vn 0.344424 -0.769957 -0.537157
vn 0.211551 -0.947457 -0.239939
vn 0.273397 0.948828 0.158046
vn 0.589504 0.806260 -0.049298
vn 0.776332 0.591086 -0.218918
vn 0.857947 0.378492 -0.347376
vn 0.869672 0.180267 -0.459537
vn 0.854356 0.066119 -0.515465
vn 0.858746 -0.023334 -0.511870
vn 0.840304 -0.251972 -0.480000
vn 0.756118 -0.527431 -0.387430
vn 0.607002 -0.752075 -0.256771
vn 0.363946 -0.928707 -0.071040
vn -0.156666 0.905900 0.393447
vn 0.002426 -0.985774 0.168058
vt 0.598443 0.881613
vt 0.647604 0.926844
vt 0.558386 0.964882
vt 0.536644 0.927351
vt 0.653822 0.812971
vt 0.727127 0.861140
vt 0.700361 0.724142
vt 0.793576 0.773383
vt 0.736805 0.615979
vt 0.847800 0.657202
vt 0.762666 0.501111
vt 0.884281 0.517147
vt 0.769261 0.379456
vt 0.889669 0.385507
vt 0.758610 0.308698
vt 0.872652 0.303910
vt 0.722134 0.225886
vt 0.821210 0.210409
vt 0.650635 0.139114
vt 0.718901 0.110283
vt 0.567939 0.074295
vt 0.601278 0.044538
vt 0.465552 0.971794
vt 0.479188 0.022600
vt 0.547060 0.862467
vt 0.510046 0.917207
vt 0.581155 0.787847
vt 0.610633 0.688984
vt 0.635848 0.590931
vt 0.651672 0.479855
vt 0.658756 0.364620
vt 0.653897 0.297541
vt 0.631004 0.221529
vt 0.583772 0.141377
vt 0.532882 0.077176
vt 0.476869 0.851228
vt 0.473713 0.911001
vt 0.481890 0.773709
vt 0.488063 0.664396
vt 0.494451 0.574660
vt 0.500301 0.463128
vt 0.504808 0.348767
vt 0.506389 0.283647
vt 0.500258 0.216075
vt 0.490552 0.140602
vt 0.484719 0.078115
vt 0.406679 0.849337
vt 0.437380 0.909228
vt 0.382626 0.772298
vt 0.365495 0.689775
vt 0.353651 0.569054
vt 0.347829 0.453466
vt 0.349631 0.337730
vt 0.356125 0.273240
vt 0.366876 0.210416
vt 0.395342 0.138485
vt 0.436066 0.076966
vt 0.355296 0.855824
vt 0.410782 0.913096
vt 0.309959 0.779232
vt 0.275806 0.691738
vt 0.253099 0.568559
vt 0.236721 0.449570
vt 0.236216 0.332100
vt 0.246251 0.267217
vt 0.271595 0.206489
vt 0.325287 0.134216
vt 0.400255 0.074079
vt 0.294158 0.893336
vt 0.375429 0.947092
vt 0.227278 0.814457
vt 0.176104 0.718574
vt 0.135051 0.592488
vt 0.113191 0.457819
vt 0.110331 0.330006
vt 0.123562 0.258308
vt 0.163329 0.188455
vt 0.246377 0.105954
vt 0.357926 0.044406
vt 0.355296 0.890338
vt 0.410782 0.932374
vt 0.309959 0.820339
vt 0.275562 0.727679
vt 0.248090 0.608991
vt 0.231739 0.476194
vt 0.229414 0.350643
vt 0.236806 0.280158
vt 0.263147 0.206348
vt 0.322480 0.123098
vt 0.400048 0.066061
vt 0.406679 0.909335
vt 0.437380 0.942620
vt 0.382626 0.845418
vt 0.365314 0.756598
vt 0.351861 0.637334
vt 0.342845 0.496897
vt 0.342450 0.363217
vt 0.344506 0.287339
vt 0.356595 0.204951
vt 0.390615 0.117884
vt 0.435305 0.063108
vt 0.476869 0.922768
vt 0.473713 0.949370
vt 0.481891 0.864755
vt 0.487916 0.780962
vt 0.493368 0.663429
vt 0.496863 0.513965
vt 0.497118 0.377489
vt 0.493291 0.296061
vt 0.487358 0.206374
vt 0.484073 0.115995
vt 0.483468 0.062027
vt 0.547060 0.926272
vt 0.510046 0.951026
vt 0.581155 0.870685
vt 0.610519 0.789980
vt 0.635070 0.675077
vt 0.651853 0.530454
vt 0.652701 0.389568
vt 0.643545 0.305290
vt 0.619847 0.211771
vt 0.578008 0.118278
vt 0.531669 0.063111
vt 0.598443 0.918816
vt 0.536644 0.947014
vt 0.653822 0.861617
vt 0.700270 0.779846
vt 0.738658 0.668999
vt 0.764950 0.529594
vt 0.767083 0.395503
vt 0.754400 0.313269
vt 0.717960 0.220176
vt 0.647376 0.124230
vt 0.567151 0.066102
g moss
f 13/1/13 2/2/2 1/3/1 12/4/12 
f 14/5/14 3/6/3 2/2/2 13/1/13 
f 15/7/15 4/8/4 3/6/3 14/5/14 
f 16/9/16 5/10/5 4/8/4 15/7/15 
f 17/11/17 6/12/6 5/10/5 16/9/16 
f 18/13/18 7/14/7 6/12/6 17/11/17 
f 19/15/19 8/16/8 7/14/7 18/13/18 
f 20/17/20 9/18/9 8/16/8 19/15/19 
f 21/19/21 10/20/10 9/18/9 20/17/20 
f 22/21/22 11/22/11 10/20/10 21/19/21 
f 12/4/12 1/3/1 133/23/133 
f 11/22/11 22/21/22 134/24/134 
f 24/25/24 13/1/13 12/4/12 23/26/23 
f 25/27/25 14/5/14 13/1/13 24/25/24 
f 26/28/26 15/7/15 14/5/14 25/27/25 
f 27/29/27 16/9/16 15/7/15 26/28/26 
f 28/30/28 17/11/17 16/9/16 27/29/27 
f 29/31/29 18/13/18 17/11/17 28/30/28 
f 30/32/30 19/15/19 18/13/18 29/31/29 
f 31/33/31 20/17/20 19/15/19 30/32/30 
f 32/34/32 21/19/21 20/17/20 31/33/31 
f 33/35/33 22/21/22 21/19/21 32/34/32 
f 23/26/23 12/4/12 133/23/133 
f 22/21/22 33/35/33 134/24/134 
f 35/36/35 24/25/24 23/26/23 34/37/34 
f 36/38/36 25/27/25 24/25/24 35/36/35 
f 37/39/37 26/28/26 25/27/25 36/38/36 
f 38/40/38 27/29/27 26/28/26 37/39/37 
f 39/41/39 28/30/28 27/29/27 38/40/38 
f 40/42/40 29/31/29 28/30/28 39/41/39 
f 41/43/41 30/32/30 29/31/29 40/42/40 
f 42/44/42 31/33/31 30/32/30 41/43/41 
f 43/45/43 32/34/32 31/33/31 42/44/42 
f 44/46/44 33/35/33 32/34/32 43/45/43 
f 34/37/34 23/26/23 133/23/133 
f 33/35/33 44/46/44 134/24/134 
f 46/47/46 35/36/35 34/37/34 45/48/45 
f 47/49/47 36/38/36 35/36/35 46/47/46 
f 48/50/48 37/39/37 36/38/36 47/49/47 
f 49/51/49 38/40/38 37/39/37 48/50/48 
f 50/52/50 39/41/39 38/40/38 49/51/49 
f 51/53/51 40/42/40 39/41/39 50/52/50 
f 52/54/52 41/43/41 40/42/40 51/53/51 
f 53/55/53 42/44/42 41/43/41 52/54/52 
f 54/56/54 43/45/43 42/44/42 53/55/53 
f 55/57/55 44/46/44 43/45/43 54/56/54 
f 45/48/45 34/37/34 133/23/133 
f 44/46/44 55/57/55 134/24/134 
f 57/58/57 46/47/46 45/48/45 56/59/56 
f 58/60/58 47/49/47 46/47/46 57/58/57 
f 59/61/59 48/50/48 47/49/47 58/60/58 
f 60/62/60 49/51/49 48/50/48 59/61/59 
f 61/63/61 50/52/50 49/51/49 60/62/60 
f 62/64/62 51/53/51 50/52/50 61/63/61 
f 63/65/63 52/54/52 51/53/51 62/64/62 
f 64/66/64 53/55/53 52/54/52 63/65/63 
f 65/67/65 54/56/54 53/55/53 64/66/64 
f 66/68/66 55/57/55 54/56/54 65/67/65 
f 56/59/56 45/48/45 133/23/133 
f 55/57/55 66/68/66 134/24/134 
f 68/69/68 57/58/57 56/59/56 67/70/67 
f 69/71/69 58/60/58 57/58/57 68/69/68 
f 70/72/70 59/61/59 58/60/58 69/71/69 
f 71/73/71 60/62/60 59/61/59 70/72/70 
f 72/74/72 61/63/61 60/62/60 71/73/71 
f 73/75/73 62/64/62 61/63/61 72/74/72 
f 74/76/74 63/65/63 62/64/62 73/75/73 
f 75/77/75 64/66/64 63/65/63 74/76/74 
f 76/78/76 65/67/65 64/66/64 75/77/75 
f 77/79/77 66/68/66 65/67/65 76/78/76 
f 67/70/67 56/59/56 133/23/133 
f 66/68/66 77/79/77 134/24/134 
f 79/80/79 68/69/68 67/70/67 78/81/78 
f 80/82/80 69/71/69 68/69/68 79/80/79 
f 81/83/81 70/72/70 69/71/69 80/82/80 
f 82/84/82 71/73/71 70/72/70 81/83/81 
f 83/85/83 72/74/72 71/73/71 82/84/82 
f 84/86/84 73/75/73 72/74/72 83/85/83 
f 85/87/85 74/76/74 73/75/73 84/86/84 
f 86/88/86 75/77/75 74/76/74 85/87/85 
f 87/89/87 76/78/76 75/77/75 86/88/86 
f 88/90/88 77/79/77 76/78/76 87/89/87 
f 78/81/78 67/70/67 133/23/133 
f 77/79/77 88/90/88 134/24/134 
f 90/91/90 79/80/79 78/81/78 89/92/89 
f 91/93/91 80/82/80 79/80/79 90/91/90 
f 92/94/92 81/83/81 80/82/80 91/93/91 
f 93/95/93 82/84/82 81/83/81 92/94/92 
f 94/96/94 83/85/83 82/84/82 93/95/93 
f 95/97/95 84/86/84 83/85/83 94/96/94 
f 96/98/96 85/87/85 84/86/84 95/97/95 
f 97/99/97 86/88/86 85/87/85 96/98/96 
f 98/100/98 87/89/87 86/88/86 97/99/97 
f 99/101/99 88/90/88 87/89/87 98/100/98 
f 89/92/89 78/81/78 133/23/133 
f 88/90/88 99/101/99 134/24/134 
f 101/102/101 90/91/90 89/92/89 100/103/100 
f 102/104/102 91/93/91 90/91/90 101/102/101 
f 103/105/103 92/94/92 91/93/91 102/104/102 
f 104/106/104 93/95/93 92/94/92 103/105/103 
f 105/107/105 94/96/94 93/95/93 104/106/104 
f 106/108/106 95/97/95 94/96/94 105/107/105 
f 107/109/107 96/98/96 95/97/95 106/108/106 
f 108/110/108 97/99/97 96/98/96 107/109/107 
f 109/111/109 98/100/98 97/99/97 108/110/108 
f 110/112/110 99/101/99 98/100/98 109/111/109 
f 100/103/100 89/92/89 133/23/133 
f 99/101/99 110/112/110 134/24/134 
f 112/113/112 101/102/101 100/103/100 111/114/111 
f 113/115/113 102/104/102 101/102/101 112/113/112 
f 114/116/114 103/105/103 102/104/102 113/115/113 
f 115/117/115 104/106/104 103/105/103 114/116/114 
f 116/118/116 105/107/105 104/106/104 115/117/115 
f 117/119/117 106/108/106 105/107/105 116/118/116 
f 118/120/118 107/109/107 106/108/106 117/119/117 
f 119/121/119 108/110/108 107/109/107 118/120/118 
f 120/122/120 109/111/109 108/110/108 119/121/119 
f 121/123/121 110/112/110 109/111/109 120/122/120 
f 111/114/111 100/103/100 133/23/133 
f 110/112/110 121/123/121 134/24/134 
f 123/124/123 112/113/112 111/114/111 122/125/122 
f 124/126/124 113/115/113 112/113/112 123/124/123 
f 125/127/125 114/116/114 113/115/113 124/126/124 
f 126/128/126 115/117/115 114/116/114 125/127/125 
f 127/129/127 116/118/116 115/117/115 126/128/126 
f 128/130/128 117/119/117 116/118/116 127/129/127 
f 129/131/129 118/120/118 117/119/117 128/130/128 
f 130/132/130 119/121/119 118/120/118 129/131/129 
f 131/133/131 120/122/120 119/121/119 130/132/130 
f 132/134/132 121/123/121 120/122/120 131/133/131 
f 122/125/122 111/114/111 133/23/133 
f 121/123/121 132/134/132 134/24/134 
f 2/2/2 123/124/123 122/125/122 1/3/1 
f 3/6/3 124/126/124 123/124/123 2/2/2 
f 4/8/4 125/127/125 124/126/124 3/6/3 
f 5/10/5 126/128/126 125/127/125 4/8/4 
f 6/12/6 127/129/127 126/128/126 5/10/5 
f 7/14/7 128/130/128 127/129/127 6/12/6 
f 8/16/8 129/131/129 128/130/128 7/14/7 
f 9/18/9 130/132/130 129/131/129 8/16/8 
f 10/20/10 131/133/131 130/132/130 9/18/9 
f 11/22/11 132/134/132 131/133/131 10/20/10 
f 1/3/1 122/125/122 133/23/133 
f 132/134/132 11/22/11 134/24/134 
