o mound.obj
v 1.474992 6.064938 0.227628
v 2.865968 5.457308 0.202504
v 3.829089 4.503486 0.142392
v 4.456120 3.497406 0.066537
v 5.006095 2.464464 0.015667
v 5.636594 1.160186 0.003118
v 1.257558 6.062652 0.981271
v 2.457495 5.442182 1.634872
v 3.060084 4.659788 1.874914
v 3.612372 3.716177 2.129233
v 4.234764 2.468246 2.454003
v 4.856486 1.075212 2.806864
v 0.679106 6.070949 1.531186
v 1.356379 5.430732 2.697203
v 1.719732 4.625473 3.186999
v 2.046929 3.757662 3.608505
v 2.437114 2.413546 4.232755
v 2.793149 0.980562 4.840693
v -0.079674 6.120954 1.723433
v -0.094196 5.560020 3.069870
v -0.071108 4.772797 3.655632
v -0.024090 3.833559 4.161222
v -0.002820 2.412978 4.888196
v -0.000467 0.971124 5.597707
v -0.817941 6.210920 1.501902
v -1.554438 5.714766 2.671922
v -1.936430 4.950186 3.177518
v -2.203724 4.000602 3.592425
v -2.476958 2.456437 4.235576
v -2.806736 0.963159 4.863069
v -1.339912 6.302481 0.921026
v -2.660655 5.614482 1.614771
v -3.499083 4.735549 1.912643
v -3.974868 3.710871 2.104899
v -4.465805 2.388983 2.457006
v -4.895962 0.948093 2.825410
v -1.518176 6.370786 0.145421
v -2.972096 5.574200 0.162844
v -4.010095 4.360183 0.122763
v -4.506010 3.445457 0.035117
v -5.024792 2.341085 0.007857
v -5.679570 0.932044 0.004608
v -1.309541 6.400118 -0.614353
v -2.739442 5.592196 -1.328763
v -4.103288 4.335057 -1.849187
v -4.549096 3.406716 -2.172903
v -4.806400 2.343489 -2.471364
v -4.976813 0.928401 -2.838087
v -0.763313 6.360090 -1.152564
v -1.559529 5.486842 -2.383053
v -2.318062 4.296130 -3.417396
v -2.521049 3.415926 -3.942616
v -2.594868 2.418109 -4.363315
v -2.857559 0.932420 -4.940497
v -0.035952 6.262036 -1.325516
v -0.082618 5.390445 -2.760490
v -0.091461 4.296024 -3.975937
v -0.061768 3.419204 -4.560340
v -0.013296 2.420093 -5.037197
v -0.001235 0.952270 -5.664358
v 0.696975 6.144206 -1.092293
v 1.410715 5.359069 -2.354646
v 1.994576 4.295450 -3.416495
v 2.258984 3.420799 -3.935884
v 2.514547 2.425917 -4.359858
v 2.843757 0.960072 -4.923495
v 1.260164 6.081617 -0.527105
v 2.576363 5.395576 -1.264213
v 3.536957 4.326067 -1.889661
v 3.958261 3.468987 -2.236963
v 4.365058 2.651474 -2.509349
v 4.903678 1.351986 -2.827929
v -0.033921 6.506491 0.171335
vn 0.343610 0.939085 0.007229
vn 0.562330 0.826592 0.023027
vn 0.787710 0.614301 0.046334
vn 0.869394 0.491854 0.047257
vn 0.890789 0.452936 0.036653
vn 0.902818 0.429131 0.027690
vn 0.295689 0.937865 0.181596
vn 0.501103 0.801293 0.326841
vn 0.680262 0.585518 0.440922
vn 0.738712 0.491031 0.461728
vn 0.759815 0.455123 0.464267
vn 0.766891 0.442209 0.465112
vn 0.202080 0.935897 0.288549
vn 0.331850 0.777111 0.534765
vn 0.417986 0.560345 0.715053
vn 0.430094 0.498228 0.752853
vn 0.435333 0.462732 0.772246
vn 0.438319 0.445946 0.780390
vn 0.086532 0.944558 0.316737
vn 0.072377 0.785625 0.614455
vn 0.038826 0.544274 0.838008
vn 0.014739 0.476803 0.878887
vn 0.003403 0.452985 0.891511
vn 0.002629 0.441032 0.897488
vn -0.074081 0.962421 0.261262
vn -0.259851 0.815925 0.516473
vn -0.385349 0.551678 0.739701
vn -0.423797 0.448920 0.786681
vn -0.438767 0.430672 0.788673
vn -0.445685 0.433522 0.783213
vn -0.217335 0.964828 0.147890
vn -0.513886 0.825601 0.233034
vn -0.719980 0.584711 0.373821
vn -0.785162 0.435927 0.439872
vn -0.794402 0.396073 0.460491
vn -0.796928 0.386292 0.464418
vn -0.279839 0.959514 0.031985
vn -0.607011 0.794378 0.022404
vn -0.817229 0.572470 0.066449
vn -0.897072 0.435494 0.074875
vn -0.916736 0.397654 0.038288
vn -0.923009 0.384444 0.016057
vn -0.227302 0.963213 -0.143366
vn -0.519801 0.814801 -0.256722
vn -0.714795 0.627732 -0.308253
vn -0.795764 0.469210 -0.382886
vn -0.811096 0.379944 -0.444709
vn -0.811648 0.348062 -0.469128
vn -0.076857 0.947551 -0.310226
vn -0.253316 0.794709 -0.551605
vn -0.359280 0.629246 -0.689178
vn -0.416934 0.455739 -0.786428
vn -0.452552 0.356962 -0.817175
vn -0.470440 0.334682 -0.816501
vn 0.096070 0.930729 -0.352865
vn 0.020171 0.791764 -0.610494
vn 0.004032 0.646463 -0.762934
vn 0.002912 0.489436 -0.872035
vn 0.000799 0.409131 -0.912475
vn 0.001395 0.396281 -0.918128
vn 0.233938 0.925264 -0.298594
vn 0.283281 0.809279 -0.514606
vn 0.372056 0.655895 -0.656792
vn 0.422480 0.499968 -0.756005
vn 0.432569 0.422657 -0.796395
vn 0.434135 0.401480 -0.806437
vn 0.314469 0.933674 -0.171356
vn 0.479908 0.828115 -0.289679
vn 0.670058 0.642036 -0.372575
vn 0.751139 0.506177 -0.423763
vn 0.770967 0.452505 -0.448162
vn 0.781005 0.424499 -0.458073
vn 0.104424 0.993722 0.040155
g Sphere
f 8//8 2//2 1//1 7//7 
f 9//9 3//3 2//2 8//8 
f 10//10 4//4 3//3 9//9 
f 11//11 5//5 4//4 10//10 
f 12//12 6//6 5//5 11//11 
f 7//7 1//1 73//73 
f 14//14 8//8 7//7 13//13 
f 15//15 9//9 8//8 14//14 
f 16//16 10//10 9//9 15//15 
f 17//17 11//11 10//10 16//16 
f 18//18 12//12 11//11 17//17 
f 13//13 7//7 73//73 
f 20//20 14//14 13//13 19//19 
f 21//21 15//15 14//14 20//20 
f 22//22 16//16 15//15 21//21 
f 23//23 17//17 16//16 22//22 
f 24//24 18//18 17//17 23//23 
f 19//19 13//13 73//73 
f 26//26 20//20 19//19 25//25 
f 27//27 21//21 20//20 26//26 
f 28//28 22//22 21//21 27//27 
f 29//29 23//23 22//22 28//28 
f 30//30 24//24 23//23 29//29 
f 25//25 19//19 73//73 
f 32//32 26//26 25//25 31//31 
f 33//33 27//27 26//26 32//32 
f 34//34 28//28 27//27 33//33 
f 35//35 29//29 28//28 34//34 
f 36//36 30//30 29//29 35//35 
f 31//31 25//25 73//73 
f 38//38 32//32 31//31 37//37 
f 39//39 33//33 32//32 38//38 
f 40//40 34//34 33//33 39//39 
f 41//41 35//35 34//34 40//40 
f 42//42 36//36 35//35 41//41 
f 37//37 31//31 73//73 
f 44//44 38//38 37//37 43//43 
f 45//45 39//39 38//38 44//44 
f 46//46 40//40 39//39 45//45 
f 47//47 41//41 40//40 46//46 
f 48//48 42//42 41//41 47//47 
f 43//43 37//37 73//73 
f 50//50 44//44 43//43 49//49 
f 51//51 45//45 44//44 50//50 
f 52//52 46//46 45//45 51//51 
f 53//53 47//47 46//46 52//52 
f 54//54 48//48 47//47 53//53 
f 49//49 43//43 73//73 
f 56//56 50//50 49//49 55//55 
f 57//57 51//51 50//50 56//56 
f 58//58 52//52 51//51 57//57 
f 59//59 53//53 52//52 58//58 
f 60//60 54//54 53//53 59//59 
f 55//55 49//49 73//73 
f 62//62 56//56 55//55 61//61 
f 63//63 57//57 56//56 62//62 
f 64//64 58//58 57//57 63//63 
f 65//65 59//59 58//58 64//64 
f 66//66 60//60 59//59 65//65 
f 61//61 55//55 73//73 
f 68//68 62//62 61//61 67//67 
f 69//69 63//63 62//62 68//68 
f 70//70 64//64 63//63 69//69 
f 71//71 65//65 64//64 70//70 
f 72//72 66//66 65//65 71//71 
f 67//67 61//61 73//73 
f 2//2 68//68 67//67 1//1 
f 3//3 69//69 68//68 2//2 
f 4//4 70//70 69//69 3//3 
f 5//5 71//71 70//70 4//4 
f 6//6 72//72 71//71 5//5 
f 1//1 67//67 73//73 
