o water1.obj
v 0.103088 -0.174619 -6.819476
v -1.728394 0.558545 -3.807269
v -2.172645 0.363550 -4.909599
v -1.337033 -0.144941 -6.129074
v -0.077980 0.679888 -2.631340
v 1.621592 0.865902 -1.665850
v 2.981884 1.040284 -0.738724
v 3.087546 1.156724 0.453512
v 1.657934 1.426241 1.570360
v -0.999681 1.203508 2.577568
v -3.544592 1.247324 4.087211
v -3.328284 1.178630 4.726946
v 0.195264 1.056213 2.813895
v 2.835418 1.309219 1.727148
v 4.144901 0.787422 0.396076
v 3.919068 0.805100 -1.220190
v 2.134780 0.920035 -2.076943
v 0.670788 0.685287 -2.794625
v -0.829935 0.723846 -3.804284
v -1.456693 0.399317 -4.759887
v -0.734718 -0.019648 -5.878796
v -0.225714 -0.237190 -7.147880
v 5.032271 0.606210 -0.526421
v 0.277782 -0.486567 -7.456734
v -0.505047 -0.285274 -7.256505
v -1.583415 -0.215348 -6.266692
v -2.517758 0.182737 -4.967701
v -2.196966 0.428689 -3.780188
v -0.461051 0.637116 -2.508122
v 1.347742 0.804987 -1.442666
v 2.617955 1.022321 -0.613053
v 2.655921 0.939823 0.488028
v 0.967921 1.158651 1.470797
v -1.389804 1.047628 2.550128
v -3.212311 1.305314 3.658920
v -4.766470 1.077254 4.230738
v -4.714021 1.048595 4.945626
v -2.871069 1.053357 4.987832
v 0.703283 1.032872 3.005502
v 3.405732 1.011860 1.819951
v 4.819597 0.668998 0.400058
v 5.430857 0.533820 -0.647152
v 4.389893 0.670149 -1.548243
v 2.373796 0.890380 -2.263345
v 1.040044 0.671901 -2.847831
v -0.400050 0.667519 -3.740088
v -1.085855 0.331072 -4.678495
v -0.378784 -0.030127 -5.756183
v 0.404044 -0.310798 -6.893480
v -2.175476 0.370129 -4.318883
v -1.849848 0.080456 -5.496154
v -0.755291 -0.003801 -6.751791
v -0.976049 0.725898 -3.275814
v 1.392802 0.733671 -2.367680
v 2.949656 1.077217 -1.750149
v 4.654963 0.658062 -0.147760
v 3.628527 1.009032 1.060140
v 1.805874 1.368862 2.344406
v -1.735993 0.867708 4.029677
v -2.208829 1.317003 3.640507
v -3.636880 1.201644 4.445228
v 0.518683 1.307429 2.003099
v -0.374025 1.333887 2.704216
v 2.459184 1.378392 1.092700
v 2.268659 1.342007 1.619082
v 3.248576 0.887855 -0.124434
v 3.550036 0.961300 0.410375
v 2.363127 1.163862 -1.316656
v 3.410978 0.952682 -0.931614
v 0.807363 0.674027 -2.040272
v 1.888113 0.900138 -1.882672
v -0.068820 0.736880 -3.291940
v 0.300368 0.708846 -2.731966
v -1.367833 0.391325 -4.240864
v -1.269493 0.709465 -3.833785
v -1.208370 0.091375 -5.276560
v -1.821101 0.432964 -4.838872
v -0.232108 0.055513 -6.455082
v -1.063263 -0.071103 -5.998810
v -0.003847 -0.219235 -7.008158
v 4.710690 0.668134 -0.759712
v 0.473489 -0.455221 -7.288350
v -0.082067 -0.428572 -7.433497
v -1.001911 -0.154374 -6.885229
v -2.128912 -0.010869 -5.598784
v -2.592821 0.241062 -4.344048
v -1.445704 0.611221 -3.187148
v 0.516056 0.629905 -1.866363
v 2.055704 1.027061 -1.098121
v 2.830094 0.900289 -0.074257
v 1.988623 1.321776 1.153025
v -0.205742 1.009215 1.827911
v -2.368936 1.298594 3.388170
v -3.951777 1.160483 3.859876
v -5.162029 1.090615 4.625728
v -3.806845 1.063599 5.088478
v -1.466838 0.653484 4.237491
v 2.278747 1.270635 2.550059
v 4.241504 0.756060 1.049249
v 5.212164 0.556811 -0.181141
v 5.265679 0.572809 -1.069884
v 3.229386 0.882895 -1.968440
v 1.687573 0.752173 -2.523469
v 0.364798 0.696645 -3.246758
v -0.977535 0.461202 -4.211579
v -0.845956 0.032246 -5.162838
v 0.107327 -0.076764 -6.364750
v -2.028003 1.615491 3.882411
v 1.260155 1.337596 2.243082
v 3.018443 1.382020 1.004008
v 3.983145 0.783094 -0.262711
v 2.664033 1.169201 -1.536619
v 1.099873 0.695384 -2.209742
v -0.513750 0.729012 -3.309211
v -1.764893 0.422145 -4.284614
v -1.549947 0.127856 -5.389788
v -0.501185 0.061841 -6.607168
vn 0.326639 0.905136 -0.272095
vn -0.227004 0.963296 -0.143281
vn -0.192504 0.935989 -0.294732
vn -0.198720 0.951376 -0.235359
vn -0.082350 0.985391 0.149071
vn -0.227500 0.964096 -0.136975
vn 0.068596 0.976394 0.204816
vn -0.016993 0.911033 -0.411983
vn -0.095932 0.984927 -0.143929
vn -0.265030 0.824760 -0.499529
vn -0.162219 0.985737 -0.044815
vn 0.168244 0.924204 0.342843
vn 0.115250 0.927294 0.356150
vn 0.284448 0.946174 0.154414
vn 0.252554 0.957765 -0.137485
vn 0.237671 0.970872 -0.030340
vn -0.112417 0.944765 -0.307867
vn 0.000669 0.999814 0.019256
vn 0.105334 0.917075 -0.384549
vn 0.102653 0.974100 -0.201474
vn 0.039997 0.995983 -0.080107
vn 0.078669 0.892998 -0.443132
vn 0.179187 0.983368 0.029651
vn 0.148296 0.870419 -0.469445
vn 0.041255 0.896946 -0.440212
vn -0.256161 0.925472 -0.279075
vn -0.283312 0.905046 -0.317215
vn -0.277360 0.960300 -0.029921
vn -0.122169 0.969134 0.214135
vn -0.231786 0.970048 -0.072676
vn -0.064592 0.955408 0.288137
vn -0.199783 0.782573 -0.589632
vn -0.206199 0.882854 -0.421961
vn -0.255758 0.818812 -0.513940
vn -0.130576 0.991078 -0.026741
vn -0.178068 0.978314 -0.105803
vn -0.054427 0.980323 0.189751
vn 0.110168 0.987046 0.116633
vn 0.094771 0.906809 0.410749
vn 0.290636 0.943258 0.160611
vn 0.278822 0.959393 -0.042702
vn 0.182722 0.982631 0.032399
vn 0.191523 0.980364 -0.046963
vn -0.002393 0.896451 -0.443136
vn -0.014183 0.999898 -0.001628
vn 0.154059 0.906189 -0.393812
vn 0.038291 0.980122 -0.194668
vn 0.109274 0.993082 -0.042986
vn 0.371517 0.898690 -0.233089
vn -0.295808 0.947369 -0.122430
vn -0.068361 0.903407 -0.423299
vn -0.171375 0.947228 -0.270906
vn -0.130997 0.990299 0.046341
vn -0.074890 0.990546 -0.114939
vn 0.091051 0.965515 -0.243906
vn 0.179671 0.983626 -0.014036
vn 0.403418 0.914986 -0.007433
vn 0.004158 0.980689 0.195527
vn 0.359665 0.816196 0.452178
vn -0.263041 0.920876 -0.287745
vn -0.002212 0.967389 0.253286
vn -0.173759 0.929725 -0.324682
vn -0.078589 0.991347 -0.105140
vn -0.127267 0.932169 -0.338916
vn 0.150756 0.977153 0.149812
vn 0.146857 0.989098 -0.010893
vn 0.196885 0.956455 -0.215475
vn -0.112140 0.993553 0.016658
vn 0.242024 0.968892 0.051699
vn -0.128888 0.991659 0.000587
vn -0.219489 0.958253 -0.183239
vn 0.022755 0.999689 -0.010184
vn -0.013424 0.997989 0.061942
vn 0.062939 0.941508 -0.331061
vn -0.064307 0.946927 -0.314950
vn 0.160591 0.938248 -0.306434
vn 0.033572 0.970099 -0.240378
vn 0.166144 0.978167 -0.124846
vn -0.085821 0.984296 -0.154260
vn 0.203220 0.902622 -0.379442
vn 0.201926 0.979329 0.011815
vn 0.268321 0.898909 -0.346361
vn 0.103523 0.849576 -0.517207
vn -0.230857 0.929850 -0.286503
vn -0.091332 0.905510 -0.414380
vn -0.366478 0.922945 -0.117753
vn -0.220162 0.959849 0.173835
vn -0.134121 0.990733 0.021428
vn -0.216278 0.964677 0.150407
vn 0.000233 0.993486 -0.113951
vn -0.267738 0.790430 -0.550942
vn -0.245256 0.843351 -0.478131
vn -0.176970 0.934584 -0.308601
vn -0.197545 0.980078 -0.020561
vn -0.107873 0.993854 -0.024867
vn -0.053484 0.969844 0.237785
vn 0.269040 0.925684 0.265943
vn 0.039870 0.976019 0.214005
vn 0.408926 0.908861 0.082169
vn 0.177369 0.984053 -0.013401
vn 0.177017 0.984158 0.009888
vn 0.155443 0.919735 -0.360451
vn -0.078549 0.987344 -0.137778
vn 0.073636 0.992799 -0.094492
vn 0.005939 0.957583 -0.288096
vn 0.217407 0.947608 -0.234036
vn 0.226981 0.966300 -0.121427
vn 0.049933 0.974378 0.219303
vn -0.063069 0.997920 0.013328
vn 0.213462 0.971851 -0.099696
vn 0.242405 0.969717 0.029824
vn 0.011194 0.992543 -0.121378
vn -0.097502 0.993648 -0.056197
vn -0.033074 0.999445 -0.004066
vn -0.058682 0.966217 -0.250962
vn 0.028710 0.913808 -0.405130
vn -0.003279 0.981321 -0.192351
vt 0.465883 0.936563
vt 0.463446 0.955362
vt 0.422714 0.924030
vt 0.446735 0.911497
vt 0.470757 0.898964
vt 0.487467 0.942829
vt 0.504178 0.986694
vt 0.310962 0.687994
vt 0.272319 0.690082
vt 0.324539 0.652484
vt 0.368405 0.651439
vt 0.412270 0.650395
vt 0.349605 0.685905
vt 0.286941 0.721415
vt 0.253520 0.724548
vt 0.220099 0.727681
vt 0.282763 0.773635
vt 0.255608 0.779901
vt 0.309918 0.767369
vt 0.332895 0.813322
vt 0.312007 0.822722
vt 0.291118 0.832122
vt 0.355349 0.879642
vt 0.332895 0.890609
vt 0.377804 0.868676
vt 0.398692 0.936563
vt 0.374671 0.949096
vt 0.449868 0.618018
vt 0.416447 0.614885
vt 0.508355 0.577286
vt 0.531332 0.584597
vt 0.554309 0.591908
vt 0.483289 0.621151
vt 0.596086 0.551698
vt 0.575197 0.539688
vt 0.642040 0.502089
vt 0.660839 0.518799
vt 0.679638 0.535510
vt 0.616974 0.563709
vt 0.699482 0.473368
vt 0.673372 0.464490
vt 0.704704 0.426891
vt 0.738125 0.427936
vt 0.771546 0.428980
vt 0.725592 0.482245
vt 0.678072 0.355349
vt 0.631595 0.351694
vt 0.558487 0.276497
vt 0.618018 0.282763
vt 0.677549 0.289030
vt 0.724548 0.359005
vt 0.556920 0.240987
vt 0.497911 0.240987
vt 0.437335 0.205477
vt 0.495822 0.199210
vt 0.554309 0.192944
vt 0.615929 0.240987
vt 0.413836 0.163178
vt 0.372582 0.176233
vt 0.307829 0.146990
vt 0.331850 0.127146
vt 0.355872 0.107303
vt 0.455090 0.150123
vt 0.243598 0.100514
vt 0.257697 0.134457
vt 0.207566 0.121924
vt 0.155345 0.073881
vt 0.103125 0.025839
vt 0.229498 0.066571
vt 0.277019 0.051427
vt 0.174145 0.015395
vt 0.245164 0.004950
vt 0.324539 0.036283
vt 0.403914 0.067615
vt 0.379893 0.087459
vt 0.496345 0.137068
vt 0.537599 0.124013
vt 0.671283 0.180411
vt 0.612796 0.186678
vt 0.674938 0.240987
vt 0.733947 0.240987
vt 0.796612 0.301562
vt 0.737081 0.295296
vt 0.771024 0.362660
vt 0.817500 0.366316
vt 0.838388 0.431069
vt 0.804967 0.430025
vt 0.766324 0.503655
vt 0.834211 0.455090
vt 0.896875 0.481201
vt 0.807056 0.525066
vt 0.717237 0.568931
vt 0.698438 0.552220
vt 0.637862 0.575720
vt 0.658750 0.587730
vt 0.600263 0.606530
vt 0.577286 0.599219
vt 0.516711 0.624285
vt 0.550132 0.627418
vt 0.500000 0.648306
vt 0.456135 0.649350
vt 0.388248 0.683816
vt 0.426891 0.681727
vt 0.353783 0.715148
vt 0.320362 0.718281
vt 0.337072 0.761102
vt 0.364227 0.754836
vt 0.374671 0.794523
vt 0.353783 0.803923
vt 0.400259 0.857710
vt 0.422714 0.846744
vt 0.437858 0.963717
vt 0.477023 0.990872
vt 0.449868 0.995050
vt 0.412270 0.972073
vt 0.835603 0.447083
vt 0.867632 0.456135
g Polygon
f 1/1/1 80/2/80 117/3/117 78/4/78 
f 1/1/1 78/4/78 107/5/107 49/6/49 
f 1/1/1 49/6/49 82/7/82 80/2/80 
f 2/8/2 28/9/28 87/10/87 53/11/53 
f 2/8/2 53/11/53 114/12/114 75/13/75 
f 2/8/2 75/13/75 115/14/115 50/15/50 
f 2/8/2 50/15/50 86/16/86 28/9/28 
f 3/17/3 27/18/27 86/16/86 50/15/50 
f 3/17/3 50/15/50 115/14/115 77/19/77 
f 3/17/3 77/19/77 116/20/116 51/21/51 
f 3/17/3 51/21/51 85/22/85 27/18/27 
f 4/23/4 26/24/26 85/22/85 51/21/51 
f 4/23/4 51/21/51 116/20/116 79/25/79 
f 4/23/4 79/25/79 117/3/117 52/26/52 
f 4/23/4 52/26/52 84/27/84 26/24/26 
f 5/28/5 29/29/29 88/30/88 70/31/70 
f 5/28/5 70/31/70 113/32/113 73/33/73 
f 5/28/5 73/33/73 114/12/114 53/11/53 
f 5/28/5 53/11/53 87/10/87 29/29/29 
f 6/34/6 30/35/30 89/36/89 68/37/68 
f 6/34/6 68/37/68 112/38/112 71/39/71 
f 6/34/6 71/39/71 113/32/113 70/31/70 
f 6/34/6 70/31/70 88/30/88 30/35/30 
f 7/40/7 31/41/31 90/42/90 66/43/66 
f 7/40/7 66/43/66 111/44/111 69/45/69 
f 7/40/7 69/45/69 112/38/112 68/37/68 
f 7/40/7 68/37/68 89/36/89 31/41/31 
f 8/46/8 32/47/32 91/48/91 64/49/64 
f 8/46/8 64/49/64 110/50/110 67/51/67 
f 8/46/8 67/51/67 111/44/111 66/43/66 
f 8/46/8 66/43/66 90/42/90 32/47/32 
f 9/52/9 33/53/33 92/54/92 62/55/62 
f 9/52/9 62/55/62 109/56/109 65/57/65 
f 9/52/9 65/57/65 110/50/110 64/49/64 
f 9/52/9 64/49/64 91/48/91 33/53/33 
f 10/58/10 34/59/34 93/60/93 60/61/60 
f 10/58/10 60/61/60 108/62/108 63/63/63 
f 10/58/10 63/63/63 109/56/109 62/55/62 
f 10/58/10 62/55/62 92/54/92 34/59/34 
f 11/64/11 35/65/35 94/66/94 36/67/36 
f 11/64/11 36/67/36 95/68/95 61/69/61 
f 11/64/11 61/69/61 108/62/108 60/61/60 
f 11/64/11 60/61/60 93/60/93 35/65/35 
f 12/70/12 37/71/37 96/72/96 38/73/38 
f 12/70/12 38/73/38 97/74/97 59/75/59 
f 12/70/12 59/75/59 108/62/108 61/69/61 
f 12/70/12 61/69/61 95/68/95 37/71/37 
f 13/76/13 59/75/59 97/74/97 39/77/39 
f 13/76/13 39/77/39 98/78/98 58/79/58 
f 13/76/13 58/79/58 109/56/109 63/63/63 
f 13/76/13 63/63/63 108/62/108 59/75/59 
f 14/80/14 58/79/58 98/78/98 40/81/40 
f 14/80/14 40/81/40 99/82/99 57/83/57 
f 14/80/14 57/83/57 110/50/110 65/57/65 
f 14/80/14 65/57/65 109/56/109 58/79/58 
f 15/84/15 57/83/57 99/82/99 41/85/41 
f 15/84/15 41/85/41 100/86/100 56/87/56 
f 15/84/15 56/87/56 111/44/111 67/51/67 
f 15/84/15 67/51/67 110/50/110 57/83/57 
f 16/88/16 81/89/81 101/90/101 43/91/43 
f 16/88/16 43/91/43 102/92/102 55/93/55 
f 16/88/16 55/93/55 112/38/112 69/45/69 
f 16/88/16 69/45/69 111/44/111 81/89/81 
f 17/94/17 55/93/55 102/92/102 44/95/44 
f 17/94/17 44/95/44 103/96/103 54/97/54 
f 17/94/17 54/97/54 113/32/113 71/39/71 
f 17/94/17 71/39/71 112/38/112 55/93/55 
f 18/98/18 54/97/54 103/96/103 45/99/45 
f 18/98/18 45/99/45 104/100/104 72/101/72 
f 18/98/18 72/101/72 114/12/114 73/33/73 
f 18/98/18 73/33/73 113/32/113 54/97/54 
f 19/102/19 72/101/72 104/100/104 46/103/46 
f 19/102/19 46/103/46 105/104/105 74/105/74 
f 19/102/19 74/105/74 115/14/115 75/13/75 
f 19/102/19 75/13/75 114/12/114 72/101/72 
f 20/106/20 74/105/74 105/104/105 47/107/47 
f 20/106/20 47/107/47 106/108/106 76/109/76 
f 20/106/20 76/109/76 116/20/116 77/19/77 
f 20/106/20 77/19/77 115/14/115 74/105/74 
f 21/110/21 76/109/76 106/108/106 48/111/48 
f 21/110/21 48/111/48 107/5/107 78/4/78 
f 21/110/21 78/4/78 117/3/117 79/25/79 
f 21/110/21 79/25/79 116/20/116 76/109/76 
f 22/112/22 24/113/24 83/114/83 25/115/25 
f 22/112/22 25/115/25 84/27/84 52/26/52 
f 22/112/22 52/26/52 117/3/117 80/2/80 
f 22/112/22 80/2/80 82/7/82 24/113/24 
f 23/116/23 56/87/56 100/86/100 42/117/42 
f 23/116/23 42/117/42 101/90/101 81/89/81 
f 23/116/23 81/89/81 111/44/111 56/87/56 
