o waterRing.obj
v -1.499430 -0.282545 3.295251
v -3.203677 -0.282545 2.331980
v -3.944655 -0.282545 0.924124
v -3.796458 -0.282545 -0.854223
v -3.203677 -0.282545 -2.410273
v -1.721670 -0.282545 -3.390404
v -0.165670 -0.282545 -3.818129
v 1.686771 -0.282545 -3.373544
v 3.020530 -0.282545 -2.262078
v 3.835605 -0.282545 -1.150611
v 3.909703 -0.282545 0.405441
v 3.220300 -0.282530 1.859608
v 2.427749 -0.282545 3.147054
v 0.427111 -0.282545 3.888033
v -2.370078 -0.282549 5.210676
v -5.075570 -0.282549 3.681484
v -6.251872 -0.282549 1.446513
v -6.016610 -0.282549 -1.376613
v -5.075570 -0.282549 -3.846843
v -2.722883 -0.282549 -5.402801
v -0.252735 -0.282549 -6.081814
v 2.688016 -0.282549 -5.376035
v 4.805359 -0.282549 -3.611583
v 6.099290 -0.282549 -1.847130
v 6.216920 -0.282549 0.623103
v 5.122494 -0.282525 2.931594
v 3.864318 -0.282549 4.975415
v 0.688306 -0.282549 6.151718
vn -0.000001 1.000000 0.000002
vn -0.000001 1.000000 0.000001
vn -0.000002 1.000000 0.000000
vn -0.000002 1.000000 -0.000000
vn -0.000001 1.000000 -0.000001
vn -0.000001 1.000000 -0.000002
vn -0.000000 1.000000 -0.000002
vn 0.000001 1.000000 -0.000002
vn 0.000001 1.000000 -0.000001
vn 0.000002 1.000000 -0.000001
vn 0.000002 1.000000 -0.000005
vn -0.000002 1.000000 -0.000001
vn -0.000003 1.000000 0.000005
vn 0.000000 1.000000 0.000002
vn -0.000001 1.000000 0.000002
vn -0.000001 1.000000 0.000001
vn -0.000002 1.000000 0.000000
vn -0.000002 1.000000 -0.000000
vn -0.000001 1.000000 -0.000001
vn -0.000001 1.000000 -0.000002
vn -0.000000 1.000000 -0.000002
vn 0.000001 1.000000 -0.000002
vn 0.000001 1.000000 -0.000001
vn 0.000002 1.000000 -0.000001
vn 0.000002 1.000000 -0.000005
vn -0.000002 1.000000 -0.000001
vn -0.000003 1.000000 0.000005
vn 0.000000 1.000000 0.000002
vt 0.021428 0.966109
vt 0.501904 0.964630
vt 0.501085 0.023551
vt 0.024618 0.023128
vt 0.967097 0.965988
vt 0.962072 0.020692
vt 0.021428 0.966109
vt 0.501904 0.964630
vt 0.501085 0.023551
vt 0.024618 0.023128
vt 0.963849 0.965637
vt 0.962072 0.020692
vt 0.021428 0.966109
vt 0.501904 0.964630
vt 0.501085 0.023551
vt 0.024618 0.023128
vt 0.963849 0.965637
vt 0.962072 0.020692
vt 0.021428 0.966109
vt 0.501904 0.964630
vt 0.501085 0.023551
vt 0.024618 0.023128
vt 0.963849 0.965637
vt 0.962072 0.020692
vt 0.021428 0.966109
vt 0.501904 0.964630
vt 0.501085 0.023551
vt 0.024618 0.023128
vt 0.963849 0.965637
vt 0.962072 0.020692
vt 0.021428 0.966109
vt 0.501904 0.964630
vt 0.501085 0.023551
vt 0.024618 0.023128
vt 0.963849 0.965637
vt 0.962072 0.020692
vt 0.021428 0.966109
vt 0.501904 0.964630
vt 0.501085 0.023551
vt 0.024618 0.023128
vt 0.963849 0.965637
vt 0.962072 0.020692
g waterline
f 1/1/1 2/2/2 16/3/16 15/4/15 
f 2/2/2 3/5/3 17/6/17 16/3/16 
f 3/7/3 4/8/4 18/9/18 17/10/17 
f 4/8/4 5/11/5 19/12/19 18/9/18 
f 5/13/5 6/14/6 20/15/20 19/16/19 
f 6/14/6 7/17/7 21/18/21 20/15/20 
f 7/19/7 8/20/8 22/21/22 21/22/21 
f 8/20/8 9/23/9 23/24/23 22/21/22 
f 9/25/9 10/26/10 24/27/24 23/28/23 
f 10/26/10 11/29/11 25/30/25 24/27/24 
f 11/31/11 12/32/12 26/33/26 25/34/25 
f 12/32/12 13/35/13 27/36/27 26/33/26 
f 13/37/13 14/38/14 28/39/28 27/40/27 
f 14/38/14 1/41/1 15/42/15 28/39/28 
